<svg data-v-423bf9ae="" xmlns="http://www.w3.org/2000/svg" viewBox="0 0 395 90" class="iconLeft"><!----><!----><!----><g data-v-423bf9ae="" id="1bfe33c8-dd24-4937-bbab-ab6b3a60304b" fill="white" transform="matrix(6.054490506946714,0,0,6.054490506946714,108.48637664666606,12.457113826432519)"><path d="M2.12 0.56L5.02 0.56L5.02 0.56Q6.13 0.56 7.00 0.82L7.00 0.82L7.00 0.82Q7.88 1.08 8.48 1.60L8.48 1.60L8.48 1.60Q9.08 2.11 9.40 2.88L9.40 2.88L9.40 2.88Q9.71 3.65 9.71 4.68L9.71 4.68L9.71 4.68Q9.71 5.58 9.51 6.35L9.51 6.35L9.51 6.35Q9.30 7.11 8.92 7.72L8.92 7.72L8.92 7.72Q8.55 8.33 8.04 8.79L8.04 8.79L8.04 8.79Q7.52 9.26 6.91 9.57L6.91 9.57L6.91 9.57Q6.30 9.88 5.61 10.04L5.61 10.04L5.61 10.04Q4.92 10.19 4.20 10.19L4.20 10.19L0.25 10.19L2.12 0.56ZM3.83 2.12L2.56 8.63L4.14 8.63L4.14 8.63Q4.93 8.63 5.61 8.38L5.61 8.38L5.61 8.38Q6.28 8.13 6.77 7.64L6.77 7.64L6.77 7.64Q7.27 7.15 7.55 6.43L7.55 6.43L7.55 6.43Q7.83 5.71 7.83 4.76L7.83 4.76L7.83 4.76Q7.83 4.09 7.64 3.60L7.64 3.60L7.64 3.60Q7.44 3.10 7.09 2.78L7.09 2.78L7.09 2.78Q6.73 2.45 6.21 2.28L6.21 2.28L6.21 2.28Q5.69 2.12 5.03 2.12L5.03 2.12L3.83 2.12ZM18.20 10.19L10.36 10.19L12.22 0.56L19.80 0.56L19.50 2.12L13.94 2.12L13.47 4.54L18.61 4.54L18.31 6.10L13.17 6.10L12.67 8.63L18.51 8.63L18.20 10.19ZM29.76 0.56L24.49 10.19L22.17 10.19L20.62 0.56L22.70 0.56L23.48 6.75L23.48 6.75Q23.52 7.05 23.54 7.38L23.54 7.38L23.54 7.38Q23.57 7.70 23.59 7.96L23.59 7.96L23.59 7.96Q23.62 8.28 23.63 8.57L23.63 8.57L23.63 8.57Q23.75 8.29 23.89 7.98L23.89 7.98L23.89 7.98Q24.01 7.72 24.16 7.39L24.16 7.39L24.16 7.39Q24.32 7.07 24.48 6.75L24.48 6.75L27.66 0.56L29.76 0.56ZM32.89 10.33L32.89 10.33L32.89 10.33Q31.96 10.33 31.27 10.17L31.27 10.17L31.27 10.17Q30.57 10.00 30.09 9.67L30.09 9.67L30.09 9.67Q29.61 9.34 29.33 8.85L29.33 8.85L29.33 8.85Q29.05 8.35 28.96 7.70L28.96 7.70L30.93 7.36L30.93 7.36Q31.00 7.73 31.15 8.00L31.15 8.00L31.15 8.00Q31.30 8.28 31.55 8.46L31.55 8.46L31.55 8.46Q31.81 8.64 32.17 8.73L32.17 8.73L32.17 8.73Q32.53 8.82 33.02 8.82L33.02 8.82L33.02 8.82Q33.54 8.82 33.98 8.75L33.98 8.75L33.98 8.75Q34.41 8.68 34.72 8.52L34.72 8.52L34.72 8.52Q35.03 8.36 35.21 8.10L35.21 8.10L35.21 8.10Q35.38 7.84 35.38 7.46L35.38 7.46L35.38 7.46Q35.38 7.14 35.25 6.91L35.25 6.91L35.25 6.91Q35.12 6.69 34.87 6.52L34.87 6.52L34.87 6.52Q34.61 6.36 34.23 6.23L34.23 6.23L34.23 6.23Q33.85 6.10 33.35 5.97L33.35 5.97L33.35 5.97Q32.70 5.80 32.14 5.58L32.14 5.58L32.14 5.58Q31.58 5.37 31.15 5.05L31.15 5.05L31.15 5.05Q30.73 4.72 30.49 4.26L30.49 4.26L30.49 4.26Q30.24 3.79 30.24 3.10L30.24 3.10L30.24 3.10Q30.24 2.45 30.55 1.95L30.55 1.95L30.55 1.95Q30.86 1.45 31.39 1.11L31.39 1.11L31.39 1.11Q31.92 0.77 32.63 0.59L32.63 0.59L32.63 0.59Q33.35 0.42 34.16 0.42L34.16 0.42L34.16 0.42Q35.04 0.42 35.71 0.58L35.71 0.58L35.71 0.58Q36.37 0.75 36.85 1.06L36.85 1.06L36.85 1.06Q37.32 1.36 37.60 1.79L37.60 1.79L37.60 1.79Q37.88 2.21 37.98 2.73L37.98 2.73L36.01 3.19L36.01 3.19Q35.86 2.58 35.36 2.21L35.36 2.21L35.36 2.21Q34.86 1.85 34.05 1.85L34.05 1.85L34.05 1.85Q33.60 1.85 33.26 1.93L33.26 1.93L33.26 1.93Q32.92 2.02 32.69 2.18L32.69 2.18L32.69 2.18Q32.46 2.34 32.35 2.56L32.35 2.56L32.35 2.56Q32.23 2.78 32.23 3.04L32.23 3.04L32.23 3.04Q32.23 3.34 32.39 3.55L32.39 3.55L32.39 3.55Q32.54 3.76 32.81 3.91L32.81 3.91L32.81 3.91Q33.08 4.06 33.46 4.18L33.46 4.18L33.46 4.18Q33.83 4.29 34.28 4.42L34.28 4.42L34.28 4.42Q34.63 4.51 35.00 4.62L35.00 4.62L35.00 4.62Q35.36 4.74 35.70 4.89L35.70 4.89L35.70 4.89Q36.05 5.04 36.35 5.25L36.35 5.25L36.35 5.25Q36.65 5.46 36.87 5.75L36.87 5.75L36.87 5.75Q37.10 6.04 37.23 6.42L37.23 6.42L37.23 6.42Q37.36 6.80 37.36 7.30L37.36 7.30L37.36 7.30Q37.36 8.02 37.08 8.58L37.08 8.58L37.08 8.58Q36.81 9.14 36.26 9.53L36.26 9.53L36.26 9.53Q35.70 9.92 34.86 10.12L34.86 10.12L34.86 10.12Q34.02 10.33 32.89 10.33ZM47.22 10.19L45.23 10.19L44.85 7.73L41.18 7.73L39.85 10.19L37.84 10.19L43.22 0.56L45.60 0.56L47.22 10.19ZM44.69 6.21L44.24 3.12L44.24 3.12Q44.22 3.02 44.20 2.87L44.20 2.87L44.20 2.87Q44.18 2.71 44.16 2.55L44.16 2.55L44.16 2.55Q44.14 2.39 44.13 2.25L44.13 2.25L44.13 2.25Q44.11 2.11 44.11 2.04L44.11 2.04L44.11 2.04Q44.08 2.13 44.01 2.29L44.01 2.29L44.01 2.29Q43.94 2.46 43.85 2.67L43.85 2.67L43.85 2.67Q43.76 2.87 43.65 3.09L43.65 3.09L43.65 3.09Q43.54 3.31 43.44 3.49L43.44 3.49L41.99 6.21L44.69 6.21Z"></path></g><!----><g data-v-423bf9ae="" id="59423c30-ea7c-471f-94ae-d54ca60d48d0" transform="matrix(1.1421319354630703,0,0,1.1421319354630703,-11.50659857012758,-11.50659857012758)" stroke="none" fill="white"><path d="M77.8 22.2L50 10.6 22.2 22.2 10.6 50l11.5 27.8L50 89.4l27.8-11.5L89.4 50 77.8 22.2zm9.1 26.3l-12.5-3.4v-.6c0-2-1.1-3.8-2.7-4.8L77.3 25l9.6 23.5zM45.8 60.3c-.3-2.3-1.6-4.2-3.5-5.3l5-12.1c.9.3 1.8.4 2.7.4s1.9-.1 2.7-.4l6.2 15c-.8.6-1.4 1.4-1.6 2.4H45.8zm15.4-3.1c-.2 0-.4 0-.7.1l-6.2-15c1.3-.7 2.3-1.7 3.1-2.9l6.2 3.4c-.2.6-.3 1.2-.3 1.8 0 1.9 1 3.6 2.4 4.6L62 57.3c-.3-.1-.5-.1-.8-.1zM38.7 54c-.8 0-1.6.1-2.3.4l-5.6-11.6c.9-.7 1.5-1.8 1.5-3.1v-.1l9.3-2.3c.7 2.1 2.2 3.9 4.2 4.9l-5 12c-.7-.1-1.4-.2-2.1-.2zm30.1-14.9c-1.8 0-3.3.8-4.3 2.1l-6.2-3.4c.5-1.1.7-2.3.7-3.5 0-1-.2-1.9-.5-2.8l17-7.1L70 39.2c-.4-.1-.8-.1-1.2-.1zm-27.7-3.5l-9.3 2.3c-.7-1.3-2-2.2-3.6-2.2h-.3l-3.6-11.3 17.1 7.1c-.3.9-.5 1.8-.5 2.8.1.5.1.9.2 1.3zm-15.7 6.9c.7.7 1.7 1.2 2.8 1.2.3 0 .6 0 .9-.1l5.6 11.6c-1 .6-1.8 1.5-2.4 2.5L13.6 50l11.8-7.5zM63.6 58l3.8-8.1c.5.1 1 .2 1.5.2 2.2 0 4.2-1.3 5-3.2L86 50.1 64.5 59c-.2-.4-.6-.7-.9-1zm13.1-34zm-18.9 5.9c-1.4-2.5-4-4.2-6.9-4.5V12.9l24 9.9-17.1 7.1zm-8.7-17v12.5c-3 .3-5.5 2-6.9 4.5l-17.1-7.1 24-9.9zM22.8 25.2l3.5 11c-1.2.7-2 2-2 3.4 0 .5.1.9.3 1.4l-11.2 7.1 9.4-22.9zM12.7 49.5zm.5 2.1l18.5 7.7c-.2.6-.3 1.2-.3 1.9 0 1.7.6 3.2 1.6 4.5l-9.9 10-9.9-24.1zm10.3 24.9zm.9.4l9.9-10c1.2.9 2.7 1.5 4.4 1.5.7 0 1.4-.1 2-.3l7.7 18.7-24-9.9zm17.9-9.5c1.9-1.1 3.3-3.1 3.5-5.4h11.5c.2 1 .8 1.9 1.7 2.4l-9 21.7-7.7-18.7zm18.3-2.3c.2 0 .4.1.6.1.8 0 1.5-.2 2.1-.6l12.3 12.3-24 9.9 9-21.7zm16.3 10.5L64.5 63.3c.4-.6.6-1.3.6-2.1 0-.2 0-.4-.1-.6l21.7-9-9.8 24zm10.4-26.1z"></path></g><!----></svg>